<svg xmlns="http://www.w3.org/2000/svg" xmlns:xlink="http://www.w3.org/1999/xlink" width="500" zoomAndPan="magnify" viewBox="0 0 375 374.999991" height="500" preserveAspectRatio="xMidYMid meet" version="1.0"><defs><g/><clipPath id="2a2097ef5c"><path d="M 238 217 L 263 217 L 263 240 L 238 240 Z M 238 217 " clip-rule="nonzero"/></clipPath><clipPath id="89d1451012"><path d="M 35.683594 183.707031 L 315.84375 197.441406 L 313.53125 244.636719 L 33.367188 230.902344 Z M 35.683594 183.707031 " clip-rule="nonzero"/></clipPath><clipPath id="2010cdb37b"><path d="M 35.683594 183.707031 L 315.84375 197.441406 L 313.53125 244.636719 L 33.367188 230.902344 Z M 35.683594 183.707031 " clip-rule="nonzero"/></clipPath><clipPath id="dfa3c08e78"><path d="M 86 189 L 109 189 L 109 212 L 86 212 Z M 86 189 " clip-rule="nonzero"/></clipPath><clipPath id="5844a3864c"><path d="M 35.683594 183.707031 L 315.84375 197.441406 L 313.53125 244.636719 L 33.367188 230.902344 Z M 35.683594 183.707031 " clip-rule="nonzero"/></clipPath><clipPath id="b0648a6400"><path d="M 35.683594 183.707031 L 315.84375 197.441406 L 313.53125 244.636719 L 33.367188 230.902344 Z M 35.683594 183.707031 " clip-rule="nonzero"/></clipPath><clipPath id="418df07442"><path d="M 34 208 L 59 208 L 59 231 L 34 231 Z M 34 208 " clip-rule="nonzero"/></clipPath><clipPath id="62ff53d4e2"><path d="M 35.683594 183.707031 L 315.84375 197.441406 L 313.53125 244.636719 L 33.367188 230.902344 Z M 35.683594 183.707031 " clip-rule="nonzero"/></clipPath><clipPath id="59b2bf3156"><path d="M 35.683594 183.707031 L 315.84375 197.441406 L 313.53125 244.636719 L 33.367188 230.902344 Z M 35.683594 183.707031 " clip-rule="nonzero"/></clipPath><clipPath id="a24b979c43"><path d="M 186 193 L 210 193 L 210 216 L 186 216 Z M 186 193 " clip-rule="nonzero"/></clipPath><clipPath id="ddb3ee2155"><path d="M 35.683594 183.707031 L 315.84375 197.441406 L 313.53125 244.636719 L 33.367188 230.902344 Z M 35.683594 183.707031 " clip-rule="nonzero"/></clipPath><clipPath id="2c7c9a3892"><path d="M 35.683594 183.707031 L 315.84375 197.441406 L 313.53125 244.636719 L 33.367188 230.902344 Z M 35.683594 183.707031 " clip-rule="nonzero"/></clipPath><clipPath id="f9e5cb6470"><path d="M 133 209 L 157 209 L 157 231 L 133 231 Z M 133 209 " clip-rule="nonzero"/></clipPath><clipPath id="4291b630eb"><path d="M 35.683594 183.707031 L 315.84375 197.441406 L 313.53125 244.636719 L 33.367188 230.902344 Z M 35.683594 183.707031 " clip-rule="nonzero"/></clipPath><clipPath id="c4b6f10973"><path d="M 35.683594 183.707031 L 315.84375 197.441406 L 313.53125 244.636719 L 33.367188 230.902344 Z M 35.683594 183.707031 " clip-rule="nonzero"/></clipPath><clipPath id="5e82f666db"><path d="M 292 198 L 315 198 L 315 221 L 292 221 Z M 292 198 " clip-rule="nonzero"/></clipPath><clipPath id="ad8b0cd65a"><path d="M 35.683594 183.707031 L 315.84375 197.441406 L 313.53125 244.636719 L 33.367188 230.902344 Z M 35.683594 183.707031 " clip-rule="nonzero"/></clipPath><clipPath id="9e4b52fead"><path d="M 35.683594 183.707031 L 315.84375 197.441406 L 313.53125 244.636719 L 33.367188 230.902344 Z M 35.683594 183.707031 " clip-rule="nonzero"/></clipPath></defs><g clip-path="url(#2a2097ef5c)"><g clip-path="url(#89d1451012)"><g clip-path="url(#2010cdb37b)"><path fill="#ff66c4" d="M 260.878906 233.796875 C 260.882812 233.75 260.890625 233.703125 260.894531 233.65625 C 260.871094 231.757812 259.011719 230.40625 257.25 229.964844 C 255.664062 229.480469 253.464844 229.824219 252.816406 231.476562 C 252.726562 231.71875 252.707031 231.980469 252.734375 232.234375 C 253.109375 234.417969 255.496094 235.761719 257.648438 235.8125 C 259.019531 235.949219 260.660156 235.207031 260.878906 233.796875 Z M 262.089844 225.957031 C 262.253906 224.804688 261.191406 223.710938 260.085938 223.34375 C 257.902344 222.585938 254.941406 223.109375 253.851562 225.25 C 253.769531 225.453125 253.726562 225.671875 253.726562 225.890625 C 253.738281 227.460938 255.40625 228.402344 256.851562 228.574219 C 258.75 228.84375 261.097656 228.257812 261.945312 226.453125 C 262.019531 226.289062 262.070312 226.125 262.089844 225.957031 Z M 253.566406 237.722656 C 253.773438 235.71875 251.941406 234.015625 250.054688 233.503906 C 248.710938 233.011719 246.742188 233.417969 246.378906 234.921875 C 246.050781 237.046875 248.164062 238.886719 250.183594 239.28125 C 251.5 239.636719 253.253906 239.144531 253.566406 237.722656 Z M 256 220.273438 C 256.148438 219.433594 255.761719 218.515625 254.914062 218.089844 C 252.652344 216.960938 249.386719 217.9375 248.480469 220.289062 C 248.128906 221.273438 248.792969 222.300781 249.722656 222.710938 C 251.71875 223.589844 254.320312 222.894531 255.574219 221.199219 C 255.800781 220.925781 255.941406 220.605469 256 220.273438 Z M 250.242188 228.464844 C 250.515625 226.808594 249.921875 224.984375 248.800781 223.695312 C 247.480469 222.289062 245.875 221.050781 244.027344 220.363281 C 242.726562 219.683594 240.972656 220.445312 240.730469 221.855469 C 240.398438 223.550781 241.367188 225.214844 241.175781 226.925781 C 241.164062 228.398438 240.175781 229.558594 239.453125 230.765625 C 238.78125 231.785156 238.714844 233.332031 239.851562 234.097656 C 241.03125 234.746094 242.472656 234.316406 243.675781 233.964844 C 245.664062 233.164062 247.757812 232.300781 249.1875 230.6875 C 249.769531 230.042969 250.109375 229.273438 250.242188 228.464844 Z M 250.242188 228.464844 " fill-opacity="1" fill-rule="nonzero"/></g></g></g><g clip-path="url(#dfa3c08e78)"><g clip-path="url(#5844a3864c)"><g clip-path="url(#b0648a6400)"><path fill="#ff66c4" d="M 108.660156 203.757812 C 108.660156 203.710938 108.652344 203.664062 108.648438 203.617188 C 108.203125 201.769531 106.089844 200.863281 104.273438 200.820312 C 102.621094 200.695312 100.550781 201.515625 100.285156 203.273438 C 100.253906 203.527344 100.289062 203.789062 100.375 204.03125 C 101.226562 206.074219 103.851562 206.859375 105.960938 206.433594 C 107.328125 206.265625 108.765625 205.183594 108.660156 203.757812 Z M 108.105469 195.84375 C 108.007812 194.6875 106.730469 193.851562 105.570312 193.734375 C 103.269531 193.480469 100.5 194.644531 99.914062 196.972656 C 99.878906 197.1875 99.886719 197.410156 99.933594 197.625 C 100.292969 199.152344 102.128906 199.703125 103.578125 199.550781 C 105.488281 199.394531 107.644531 198.308594 108.070312 196.359375 C 108.109375 196.183594 108.121094 196.011719 108.105469 195.84375 Z M 102.40625 209.199219 C 102.160156 207.199219 99.996094 205.941406 98.042969 205.859375 C 96.625 205.675781 94.792969 206.503906 94.773438 208.050781 C 94.925781 210.195312 97.398438 211.523438 99.449219 211.464844 C 100.816406 211.519531 102.414062 210.65625 102.40625 209.199219 Z M 100.902344 191.644531 C 100.859375 190.789062 100.277344 189.980469 99.359375 189.753906 C 96.902344 189.148438 93.933594 190.824219 93.574219 193.316406 C 93.453125 194.351562 94.324219 195.207031 95.324219 195.40625 C 97.464844 195.820312 99.847656 194.570312 100.691406 192.636719 C 100.851562 192.320312 100.917969 191.980469 100.902344 191.644531 Z M 97.109375 200.902344 C 97.003906 199.226562 96.023438 197.578125 94.644531 196.570312 C 93.042969 195.484375 91.203125 194.628906 89.246094 194.367188 C 87.828125 193.992188 86.289062 195.121094 86.363281 196.554688 C 86.414062 198.28125 87.730469 199.6875 87.925781 201.398438 C 88.242188 202.835938 87.535156 204.183594 87.097656 205.523438 C 86.667969 206.664062 86.949219 208.191406 88.226562 208.6875 C 89.519531 209.058594 90.832031 208.320312 91.925781 207.710938 C 93.6875 206.492188 95.539062 205.191406 96.570312 203.300781 C 97 202.542969 97.15625 201.71875 97.109375 200.902344 Z M 97.109375 200.902344 " fill-opacity="1" fill-rule="nonzero"/></g></g></g><g clip-path="url(#418df07442)"><g clip-path="url(#62ff53d4e2)"><g clip-path="url(#59b2bf3156)"><path fill="#ff66c4" d="M 56.722656 224.777344 C 56.730469 224.730469 56.738281 224.683594 56.746094 224.636719 C 56.777344 222.738281 54.960938 221.332031 53.210938 220.835938 C 51.640625 220.308594 49.433594 220.585938 48.734375 222.21875 C 48.636719 222.457031 48.609375 222.71875 48.628906 222.972656 C 48.941406 225.167969 51.285156 226.582031 53.433594 226.695312 C 54.804688 226.875 56.464844 226.183594 56.722656 224.777344 Z M 58.171875 216.980469 C 58.367188 215.832031 57.34375 214.707031 56.246094 214.304688 C 54.085938 213.484375 51.109375 213.917969 49.957031 216.027344 C 49.871094 216.226562 49.820312 216.441406 49.8125 216.664062 C 49.777344 218.230469 51.417969 219.222656 52.855469 219.4375 C 54.746094 219.761719 57.109375 219.246094 58.011719 217.46875 C 58.089844 217.304688 58.144531 217.140625 58.171875 216.980469 Z M 49.296875 228.484375 C 49.5625 226.484375 47.785156 224.730469 45.914062 224.164062 C 44.585938 223.632812 42.605469 223.976562 42.195312 225.46875 C 41.808594 227.585938 43.863281 229.484375 45.867188 229.941406 C 47.175781 230.335938 48.941406 229.898438 49.296875 228.484375 Z M 52.253906 211.117188 C 52.425781 210.277344 52.066406 209.347656 51.234375 208.902344 C 49.007812 207.703125 45.714844 208.582031 44.738281 210.90625 C 44.359375 211.878906 44.988281 212.925781 45.90625 213.363281 C 47.875 214.300781 50.496094 213.683594 51.800781 212.023438 C 52.035156 211.757812 52.1875 211.445312 52.253906 211.117188 Z M 46.253906 219.132812 C 46.574219 217.484375 46.039062 215.640625 44.957031 214.320312 C 43.675781 212.875 42.113281 211.585938 40.285156 210.847656 C 39.003906 210.128906 37.230469 210.835938 36.941406 212.242188 C 36.558594 213.925781 37.480469 215.617188 37.238281 217.320312 C 37.183594 218.792969 36.15625 219.921875 35.398438 221.105469 C 34.699219 222.105469 34.585938 223.652344 35.699219 224.453125 C 36.855469 225.136719 38.3125 224.75 39.523438 224.429688 C 41.535156 223.691406 43.65625 222.890625 45.132812 221.320312 C 45.734375 220.695312 46.097656 219.9375 46.253906 219.132812 Z M 46.253906 219.132812 " fill-opacity="1" fill-rule="nonzero"/></g></g></g><g clip-path="url(#a24b979c43)"><g clip-path="url(#ddb3ee2155)"><g clip-path="url(#2c7c9a3892)"><path fill="#ff66c4" d="M 209.675781 207.328125 C 209.667969 207.28125 209.660156 207.234375 209.652344 207.1875 C 209.09375 205.371094 206.929688 204.59375 205.113281 204.664062 C 203.457031 204.640625 201.441406 205.585938 201.285156 207.355469 C 201.265625 207.613281 201.320312 207.871094 201.421875 208.105469 C 202.394531 210.097656 205.0625 210.71875 207.144531 210.164062 C 208.5 209.914062 209.867188 208.742188 209.675781 207.328125 Z M 208.632812 199.464844 C 208.464844 198.3125 207.136719 197.558594 205.972656 197.515625 C 203.660156 197.398438 200.964844 198.730469 200.527344 201.089844 C 200.503906 201.308594 200.527344 201.527344 200.585938 201.738281 C 201.039062 203.242188 202.90625 203.679688 204.339844 203.441406 C 206.238281 203.167969 208.324219 201.949219 208.628906 199.980469 C 208.65625 199.800781 208.65625 199.628906 208.632812 199.464844 Z M 203.765625 213.140625 C 203.398438 211.160156 201.164062 210.039062 199.207031 210.074219 C 197.78125 209.976562 196.003906 210.917969 196.078125 212.460938 C 196.363281 214.59375 198.910156 215.765625 200.957031 215.582031 C 202.320312 215.554688 203.867188 214.59375 203.765625 213.140625 Z M 201.183594 195.710938 C 201.089844 194.863281 200.460938 194.089844 199.527344 193.917969 C 197.039062 193.464844 194.179688 195.320312 193.972656 197.828125 C 193.914062 198.871094 194.839844 199.671875 195.847656 199.804688 C 198.011719 200.089844 200.3125 198.695312 201.035156 196.714844 C 201.175781 196.390625 201.222656 196.046875 201.183594 195.710938 Z M 197.96875 205.183594 C 197.761719 203.519531 196.679688 201.933594 195.242188 201.011719 C 193.574219 200.027344 191.6875 199.285156 189.71875 199.144531 C 188.28125 198.855469 186.8125 200.074219 186.976562 201.5 C 187.132812 203.222656 188.535156 204.546875 188.832031 206.238281 C 189.238281 207.660156 188.613281 209.046875 188.261719 210.40625 C 187.902344 211.574219 188.277344 213.082031 189.582031 213.496094 C 190.898438 213.789062 192.160156 212.972656 193.214844 212.296875 C 194.898438 210.976562 196.664062 209.5625 197.578125 207.613281 C 197.960938 206.828125 198.066406 205.996094 197.96875 205.183594 Z M 197.96875 205.183594 " fill-opacity="1" fill-rule="nonzero"/></g></g></g><g clip-path="url(#f9e5cb6470)"><g clip-path="url(#4291b630eb)"><g clip-path="url(#c4b6f10973)"><path fill="#ff66c4" d="M 155.207031 225.265625 C 155.210938 225.21875 155.21875 225.171875 155.222656 225.125 C 155.199219 223.222656 153.34375 221.875 151.578125 221.429688 C 149.992188 220.945312 147.792969 221.289062 147.144531 222.945312 C 147.054688 223.183594 147.035156 223.445312 147.0625 223.699219 C 147.4375 225.882812 149.824219 227.226562 151.976562 227.277344 C 153.347656 227.417969 154.988281 226.675781 155.207031 225.265625 Z M 156.421875 217.425781 C 156.585938 216.273438 155.523438 215.179688 154.417969 214.8125 C 152.234375 214.054688 149.273438 214.578125 148.183594 216.714844 C 148.101562 216.917969 148.058594 217.136719 148.058594 217.355469 C 148.066406 218.925781 149.738281 219.867188 151.183594 220.042969 C 153.082031 220.308594 155.425781 219.726562 156.273438 217.921875 C 156.351562 217.757812 156.398438 217.589844 156.421875 217.425781 Z M 147.894531 229.1875 C 148.101562 227.183594 146.269531 225.484375 144.382812 224.96875 C 143.042969 224.476562 141.070312 224.882812 140.707031 226.386719 C 140.378906 228.511719 142.492188 230.347656 144.507812 230.746094 C 145.828125 231.101562 147.578125 230.613281 147.894531 229.1875 Z M 150.332031 211.742188 C 150.480469 210.898438 150.09375 209.980469 149.25 209.558594 C 146.984375 208.425781 143.71875 209.402344 142.8125 211.753906 C 142.464844 212.738281 143.125 213.761719 144.054688 214.175781 C 146.050781 215.054688 148.652344 214.359375 149.90625 212.664062 C 150.132812 212.390625 150.273438 212.070312 150.332031 211.742188 Z M 144.574219 219.929688 C 144.84375 218.273438 144.253906 216.449219 143.132812 215.160156 C 141.8125 213.753906 140.207031 212.511719 138.359375 211.824219 C 137.058594 211.144531 135.308594 211.90625 135.0625 213.320312 C 134.730469 215.011719 135.699219 216.679688 135.507812 218.386719 C 135.496094 219.859375 134.503906 221.019531 133.78125 222.226562 C 133.109375 223.242188 133.042969 224.792969 134.179688 225.558594 C 135.359375 226.207031 136.800781 225.78125 138.003906 225.425781 C 139.992188 224.628906 142.085938 223.765625 143.515625 222.152344 C 144.101562 221.507812 144.441406 220.738281 144.574219 219.929688 Z M 144.574219 219.929688 " fill-opacity="1" fill-rule="nonzero"/></g></g></g><g clip-path="url(#5e82f666db)"><g clip-path="url(#ad8b0cd65a)"><g clip-path="url(#9e4b52fead)"><path fill="#ff66c4" d="M 314.332031 212.554688 C 314.328125 212.507812 314.324219 212.460938 314.316406 212.414062 C 313.882812 210.5625 311.777344 209.644531 309.960938 209.59375 C 308.304688 209.460938 306.234375 210.269531 305.960938 212.023438 C 305.921875 212.277344 305.960938 212.539062 306.042969 212.78125 C 306.882812 214.832031 309.503906 215.632812 311.617188 215.21875 C 312.984375 215.054688 314.425781 213.980469 314.332031 212.554688 Z M 313.820312 204.640625 C 313.726562 203.480469 312.453125 202.640625 311.296875 202.515625 C 308.996094 202.25 306.21875 203.394531 305.621094 205.71875 C 305.585938 205.9375 305.589844 206.160156 305.636719 206.371094 C 305.988281 207.902344 307.820312 208.460938 309.269531 208.320312 C 311.183594 208.171875 313.347656 207.097656 313.78125 205.15625 C 313.820312 204.976562 313.832031 204.804688 313.820312 204.640625 Z M 308.042969 217.960938 C 307.8125 215.960938 305.65625 214.691406 303.703125 214.597656 C 302.285156 214.40625 300.449219 215.226562 300.417969 216.773438 C 300.5625 218.917969 303.023438 220.257812 305.078125 220.210938 C 306.441406 220.273438 308.046875 219.417969 308.046875 217.960938 Z M 306.640625 200.398438 C 306.601562 199.542969 306.023438 198.730469 305.105469 198.5 C 302.652344 197.882812 299.675781 199.542969 299.300781 202.03125 C 299.171875 203.066406 300.039062 203.925781 301.039062 204.128906 C 303.179688 204.558594 305.566406 203.320312 306.425781 201.390625 C 306.585938 201.078125 306.652344 200.734375 306.640625 200.398438 Z M 302.792969 209.636719 C 302.699219 207.960938 301.726562 206.304688 300.351562 205.289062 C 298.757812 204.199219 296.921875 203.332031 294.96875 203.058594 C 293.550781 202.675781 292.007812 203.796875 292.074219 205.230469 C 292.117188 206.957031 293.425781 208.371094 293.609375 210.082031 C 293.917969 211.523438 293.199219 212.867188 292.757812 214.203125 C 292.324219 215.339844 292.59375 216.871094 293.867188 217.371094 C 295.160156 217.75 296.476562 217.023438 297.574219 216.417969 C 299.34375 215.210938 301.199219 213.917969 302.242188 212.03125 C 302.675781 211.277344 302.839844 210.453125 302.792969 209.636719 Z M 302.792969 209.636719 " fill-opacity="1" fill-rule="nonzero"/></g></g></g><g fill="#4ba0a4" fill-opacity="1"><g transform="translate(18.810988, 197.973609)"><g><path d="M 30.246094 -55.269531 C 28.460938 -55.269531 26.167969 -54.886719 24.578125 -53.738281 C 24.449219 -55.839844 22.347656 -57.242188 20.058594 -57.242188 C 17.765625 -57.242188 15.410156 -55.96875 14.261719 -52.785156 L -1.847656 -6.621094 C -2.101562 -5.859375 -2.292969 -5.15625 -2.292969 -4.519531 C -2.292969 -1.71875 0.0625 0 2.609375 0 C 4.710938 0 6.941406 -1.273438 7.960938 -4.265625 L 12.226562 -16.808594 C 14.453125 -14.707031 17.699219 -13.371094 21.265625 -13.371094 C 27.507812 -13.371094 34.257812 -17.191406 37.121094 -25.277344 L 42.152344 -39.414062 C 42.722656 -41.003906 43.042969 -42.660156 43.042969 -44.0625 C 43.042969 -51.382812 37.25 -55.269531 30.246094 -55.269531 Z M 31.582031 -39.09375 L 27.699219 -27.699219 C 26.617188 -24.515625 24.195312 -22.859375 21.710938 -22.859375 C 18.910156 -22.859375 16.617188 -24.960938 16.617188 -27.824219 C 16.617188 -28.335938 16.683594 -28.714844 16.875 -29.226562 L 21.265625 -42.152344 C 22.476562 -45.652344 25.085938 -46.863281 27.632812 -46.863281 C 30.179688 -46.863281 32.089844 -45.207031 32.089844 -42.152344 C 32.089844 -41.324219 31.964844 -40.304688 31.582031 -39.09375 Z M 31.582031 -39.09375 "/></g></g></g><g fill="#4ba0a4" fill-opacity="1"><g transform="translate(55.673852, 197.973609)"><g><path d="M 36.484375 -18.464844 C 33.621094 -10.824219 30.117188 -7.578125 27.1875 -7.578125 C 26.042969 -7.578125 25.277344 -8.214844 25.277344 -9.105469 C 25.277344 -9.359375 25.34375 -9.742188 25.46875 -10.058594 L 33.046875 -31.328125 C 33.300781 -31.964844 33.363281 -32.535156 33.363281 -33.109375 C 33.363281 -35.65625 31.136719 -37.375 28.84375 -37.375 C 26.996094 -37.375 25.085938 -36.292969 24.132812 -33.621094 L 17.128906 -14.070312 C 15.34375 -10.570312 12.605469 -7.578125 10.058594 -7.578125 C 9.105469 -7.578125 8.597656 -8.214844 8.597656 -9.167969 C 8.597656 -9.679688 8.722656 -10.507812 8.914062 -11.144531 L 15.855469 -31.007812 C 16.109375 -31.710938 16.238281 -32.347656 16.238281 -32.984375 C 16.238281 -35.59375 13.945312 -37.375 11.589844 -37.375 C 9.804688 -37.375 7.894531 -36.292969 7.003906 -33.746094 L -0.445312 -12.035156 C -0.828125 -10.886719 -1.019531 -9.742188 -1.019531 -8.660156 C -1.019531 -3.503906 3.183594 0 8.53125 0 C 12.351562 0 15.21875 -1.847656 17.574219 -4.394531 C 19.421875 -1.65625 22.859375 0 26.679688 0 C 32.726562 0 39.667969 -3.757812 44.1875 -17 C 44.316406 -17.382812 44.378906 -17.765625 44.378906 -18.148438 C 44.378906 -20.183594 42.46875 -21.394531 40.496094 -21.394531 C 38.839844 -21.394531 37.121094 -20.503906 36.484375 -18.464844 Z M 36.484375 -18.464844 "/></g></g></g><g fill="#4ba0a4" fill-opacity="1"><g transform="translate(89.990064, 197.973609)"><g><path d="M 34.703125 -18.335938 C 32.664062 -13.117188 28.972656 -9.742188 24.578125 -8.148438 L 25.152344 -9.488281 C 26.933594 -14.328125 28.78125 -19.609375 30.5625 -24.515625 C 30.945312 -25.597656 31.136719 -26.679688 31.136719 -27.824219 C 31.136719 -32.984375 26.871094 -37.375 21.902344 -37.375 C 20.183594 -37.375 18.148438 -37.058594 16.746094 -35.910156 C 16.875 -37.441406 14.773438 -38.648438 12.480469 -38.648438 C 10.378906 -38.648438 8.339844 -37.503906 7.386719 -34.828125 L -8.46875 9.996094 C -8.785156 10.824219 -8.914062 11.523438 -8.914062 12.160156 C -8.914062 14.773438 -6.75 16.109375 -4.457031 16.109375 C -2.355469 16.109375 -0.253906 15.089844 0.507812 12.734375 L 5.601562 -2.355469 C 7.578125 -0.828125 11.398438 0 16.683594 0 C 29.035156 0 38.265625 -4.902344 42.46875 -16.9375 C 42.660156 -17.511719 42.789062 -18.019531 42.789062 -18.464844 C 42.789062 -20.566406 41.003906 -21.839844 39.09375 -21.839844 C 37.375 -21.839844 35.464844 -20.757812 34.703125 -18.335938 Z M 8.976562 -11.714844 L 14.070312 -26.488281 C 14.835938 -28.78125 16.492188 -29.863281 18.273438 -29.863281 C 19.800781 -29.863281 21.203125 -28.78125 21.203125 -27.1875 C 21.203125 -26.617188 21.074219 -26.042969 20.882812 -25.40625 C 19.292969 -20.375 17.511719 -15.664062 15.789062 -10.695312 C 15.089844 -8.785156 13.371094 -7.640625 11.652344 -7.578125 C 9.996094 -7.578125 8.722656 -8.46875 8.722656 -10.25 C 8.722656 -10.695312 8.785156 -11.207031 8.976562 -11.714844 Z M 8.976562 -11.714844 "/></g></g></g><g fill="#4ba0a4" fill-opacity="1"><g transform="translate(122.587275, 197.973609)"><g><path d="M 33.808594 -18.019531 C 32.28125 -14.261719 30.054688 -11.652344 27.125 -9.933594 C 27.253906 -10.761719 27.378906 -11.523438 27.378906 -12.351562 C 27.378906 -16.046875 25.40625 -19.546875 23.621094 -22.539062 C 22.347656 -24.707031 21.074219 -26.871094 20.820312 -28.84375 C 22.605469 -29.609375 24.003906 -31.644531 24.003906 -33.554688 C 24.003906 -36.292969 21.902344 -38.839844 18.71875 -38.839844 C 16.300781 -38.839844 13.878906 -37.628906 12.671875 -35.148438 C 10.1875 -30.308594 7.511719 -25.40625 4.964844 -20.628906 C 0.699219 -19.546875 -1.402344 -14.707031 -1.402344 -10.632812 C -1.402344 -4.394531 4.839844 0.445312 16.109375 0.445312 C 27.1875 0.445312 37.121094 -3.757812 41.578125 -16.617188 C 41.707031 -16.875 41.707031 -17.191406 41.707031 -17.445312 C 41.707031 -19.292969 39.605469 -20.628906 37.566406 -20.628906 C 36.039062 -20.628906 34.511719 -19.867188 33.808594 -18.019531 Z M 13.625 -19.738281 L 14.199219 -20.949219 C 16.109375 -18.65625 17.636719 -15.601562 17.636719 -12.605469 C 17.636719 -9.613281 16.046875 -7.132812 12.671875 -7.003906 C 10.507812 -7.003906 8.597656 -7.960938 7.894531 -9.613281 C 8.40625 -9.488281 8.914062 -9.488281 9.359375 -9.488281 C 13.054688 -9.488281 15.21875 -12.605469 15.21875 -15.726562 C 15.21875 -17.191406 14.707031 -18.65625 13.625 -19.738281 Z M 13.625 -19.738281 "/></g></g></g><g fill="#4ba0a4" fill-opacity="1"><g transform="translate(154.35682, 197.973609)"><g><path d="M 22.730469 -17.957031 C 20.183594 -10.953125 16.171875 -7.578125 12.480469 -7.578125 C 10.1875 -7.578125 8.785156 -8.976562 8.785156 -10.695312 C 8.785156 -11.144531 8.914062 -11.652344 9.042969 -12.097656 L 15.28125 -29.863281 L 19.421875 -29.863281 C 22.667969 -29.863281 24.386719 -32.15625 24.386719 -34.257812 C 24.386719 -35.910156 23.304688 -37.375 20.882812 -37.375 L 18.019531 -37.375 L 22.285156 -49.792969 C 22.414062 -50.238281 22.476562 -50.621094 22.476562 -51.003906 C 22.476562 -53.359375 20.820312 -55.269531 18.019531 -55.269531 C 15.917969 -55.269531 14.136719 -53.804688 13.371094 -51.574219 L 8.277344 -37.375 L 5.601562 -37.375 C 2.164062 -37.375 0.699219 -35.210938 0.699219 -33.171875 C 0.699219 -31.390625 1.78125 -29.863281 3.503906 -29.863281 L 5.601562 -29.863281 L 0.253906 -14.515625 L 0.253906 -14.582031 C -0.253906 -13.054688 -0.507812 -11.652344 -0.507812 -10.316406 C -0.507812 -3.820312 5.285156 0 11.84375 0 C 19.992188 0 26.804688 -6.050781 30.4375 -16.492188 C 30.5625 -16.9375 30.691406 -17.382812 30.691406 -17.765625 C 30.691406 -19.675781 28.84375 -20.882812 26.871094 -20.882812 C 25.277344 -20.882812 23.496094 -19.992188 22.730469 -17.957031 Z M 22.730469 -17.957031 "/></g></g></g><g fill="#4ba0a4" fill-opacity="1"><g transform="translate(175.175745, 197.973609)"><g><path d="M 39.921875 -21.519531 C 38.140625 -21.519531 36.167969 -20.4375 35.402344 -18.019531 C 32.917969 -10.1875 28.90625 -7.578125 26.042969 -7.578125 C 24.960938 -7.578125 24.324219 -8.148438 24.324219 -9.167969 C 24.324219 -9.679688 24.449219 -10.316406 24.640625 -11.015625 L 31.773438 -31.644531 C 32.027344 -32.410156 32.15625 -33.109375 32.15625 -33.746094 C 32.15625 -36.546875 29.863281 -38.011719 27.507812 -38.011719 C 25.722656 -38.011719 23.878906 -37.183594 22.859375 -35.59375 C 21.519531 -36.421875 19.039062 -37.375 15.789062 -37.375 C 11.589844 -37.375 7.003906 -35.082031 5.285156 -30.179688 L -0.699219 -13.054688 C -1.082031 -11.90625 -1.335938 -10.761719 -1.335938 -9.613281 C -1.335938 -4.328125 2.929688 0 8.53125 0 C 11.523438 0 14.582031 -1.335938 16.9375 -3.4375 C 18.972656 -0.507812 23.496094 0 25.40625 0 C 30.691406 0 37.757812 -2.675781 41.832031 -12.988281 C 42.722656 -15.472656 43.425781 -17.0625 43.425781 -18.210938 C 43.425781 -20.375 41.769531 -21.519531 39.921875 -21.519531 Z M 18.910156 -22.15625 L 15.855469 -12.671875 C 14.515625 -8.53125 12.097656 -7.578125 10.761719 -7.578125 C 9.359375 -7.578125 8.660156 -8.46875 8.660156 -9.933594 C 8.660156 -10.761719 8.851562 -11.523438 9.042969 -12.097656 L 13.117188 -24.894531 C 14.328125 -28.78125 16.109375 -29.289062 17.128906 -29.289062 C 18.335938 -29.289062 19.675781 -28.078125 19.675781 -25.914062 C 19.675781 -24.960938 19.421875 -23.75 18.910156 -22.15625 Z M 18.910156 -22.15625 "/></g></g></g><g fill="#4ba0a4" fill-opacity="1"><g transform="translate(208.600624, 197.973609)"><g><path d="M 24.386719 -5.539062 L 33.171875 -30.179688 C 33.621094 -31.519531 33.808594 -32.601562 33.808594 -33.429688 C 33.808594 -36.292969 31.835938 -36.867188 31.007812 -37.183594 C 30.625 -37.3125 30.179688 -37.375 29.734375 -37.375 C 27.824219 -37.375 25.851562 -36.421875 25.085938 -34.191406 C 22.921875 -36.484375 20.503906 -37.375 17.128906 -37.375 C 12.417969 -37.375 7.449219 -34.703125 5.347656 -28.78125 L -0.0625 -13.371094 C -0.507812 -12.035156 -0.765625 -10.632812 -0.765625 -9.359375 C -0.765625 -4.328125 2.738281 -0.957031 7.066406 0 C 1.144531 1.144531 -6.429688 3.4375 -8.339844 9.742188 C -8.660156 10.824219 -8.785156 11.78125 -8.785156 12.734375 C -8.785156 18.910156 -3.054688 22.984375 3.183594 22.984375 C 9.488281 22.984375 15.410156 19.609375 18.019531 12.226562 L 20.949219 4.140625 C 30.054688 1.273438 39.414062 -3.691406 43.808594 -17.0625 C 43.996094 -17.574219 44.0625 -18.082031 44.0625 -18.527344 C 44.0625 -20.695312 42.40625 -21.96875 40.496094 -21.96875 C 38.777344 -21.96875 36.929688 -20.882812 36.039062 -18.402344 C 33.683594 -11.90625 29.417969 -8.085938 24.386719 -5.539062 Z M 21.648438 -25.214844 L 16.808594 -11.78125 C 15.535156 -9.359375 13.371094 -7.578125 11.207031 -7.578125 C 9.679688 -7.578125 8.53125 -8.339844 8.53125 -9.742188 C 8.53125 -10.058594 8.660156 -10.570312 8.785156 -11.015625 L 14.515625 -27.1875 C 15.152344 -28.972656 16.617188 -29.863281 18.019531 -29.863281 C 19.992188 -29.863281 21.710938 -28.398438 21.710938 -26.105469 C 21.710938 -25.851562 21.710938 -25.53125 21.648438 -25.214844 Z M 9.296875 7.066406 L 7.769531 11.398438 C 6.875 13.753906 4.902344 14.964844 2.992188 14.964844 C 1.527344 14.964844 0.828125 14.070312 0.828125 12.925781 C 0.828125 12.542969 0.957031 12.035156 1.144531 11.589844 C 2.039062 9.359375 5.15625 8.148438 9.296875 7.066406 Z M 9.296875 7.066406 "/></g></g></g><g fill="#4ba0a4" fill-opacity="1"><g transform="translate(242.598503, 197.973609)"><g><path d="M 32.28125 -18.464844 C 29.863281 -12.226562 26.617188 -7.578125 23.941406 -7.578125 C 23.050781 -7.578125 22.605469 -8.40625 22.605469 -9.296875 C 22.605469 -9.679688 22.667969 -10.1875 22.859375 -10.695312 L 26.617188 -21.140625 C 26.996094 -22.414062 27.253906 -23.558594 27.253906 -24.640625 C 27.253906 -30.691406 19.609375 -33.238281 16.046875 -34.320312 C 16.238281 -34.828125 16.300781 -35.402344 16.300781 -35.910156 C 16.300781 -38.839844 13.691406 -41.324219 10.824219 -41.324219 C 7.066406 -41.324219 4.839844 -38.011719 4.839844 -34.382812 C 4.839844 -32.792969 5.414062 -31.136719 6.429688 -29.863281 L 1.78125 -17.320312 C 1.65625 -16.808594 1.59375 -16.300781 1.59375 -15.917969 C 1.59375 -13.816406 3.246094 -12.734375 5.03125 -12.734375 C 6.8125 -12.734375 8.660156 -13.753906 9.421875 -15.789062 L 12.988281 -25.34375 C 14.773438 -24.769531 17.128906 -24.324219 17.128906 -22.15625 C 17.128906 -21.839844 17.0625 -21.457031 16.9375 -21.011719 L 14.136719 -13.242188 C 13.625 -11.78125 13.371094 -10.441406 13.371094 -9.167969 C 13.371094 -3.628906 17.765625 0 23.050781 0 C 29.988281 0 36.292969 -6.175781 40.050781 -16.9375 C 40.175781 -17.320312 40.242188 -17.636719 40.242188 -17.957031 C 40.242188 -19.867188 38.140625 -21.140625 36.101562 -21.140625 C 34.445312 -21.140625 32.855469 -20.375 32.28125 -18.464844 Z M 32.28125 -18.464844 "/></g></g></g><g fill="#4ba0a4" fill-opacity="1"><g transform="translate(272.71273, 197.973609)"><g><path d="M 39.921875 -21.519531 C 38.140625 -21.519531 36.167969 -20.4375 35.402344 -18.019531 C 32.917969 -10.1875 28.90625 -7.578125 26.042969 -7.578125 C 24.960938 -7.578125 24.324219 -8.148438 24.324219 -9.167969 C 24.324219 -9.679688 24.449219 -10.316406 24.640625 -11.015625 L 31.773438 -31.644531 C 32.027344 -32.410156 32.15625 -33.109375 32.15625 -33.746094 C 32.15625 -36.546875 29.863281 -38.011719 27.507812 -38.011719 C 25.722656 -38.011719 23.878906 -37.183594 22.859375 -35.59375 C 21.519531 -36.421875 19.039062 -37.375 15.789062 -37.375 C 11.589844 -37.375 7.003906 -35.082031 5.285156 -30.179688 L -0.699219 -13.054688 C -1.082031 -11.90625 -1.335938 -10.761719 -1.335938 -9.613281 C -1.335938 -4.328125 2.929688 0 8.53125 0 C 11.523438 0 14.582031 -1.335938 16.9375 -3.4375 C 18.972656 -0.507812 23.496094 0 25.40625 0 C 30.691406 0 37.757812 -2.675781 41.832031 -12.988281 C 42.722656 -15.472656 43.425781 -17.0625 43.425781 -18.210938 C 43.425781 -20.375 41.769531 -21.519531 39.921875 -21.519531 Z M 18.910156 -22.15625 L 15.855469 -12.671875 C 14.515625 -8.53125 12.097656 -7.578125 10.761719 -7.578125 C 9.359375 -7.578125 8.660156 -8.46875 8.660156 -9.933594 C 8.660156 -10.761719 8.851562 -11.523438 9.042969 -12.097656 L 13.117188 -24.894531 C 14.328125 -28.78125 16.109375 -29.289062 17.128906 -29.289062 C 18.335938 -29.289062 19.675781 -28.078125 19.675781 -25.914062 C 19.675781 -24.960938 19.421875 -23.75 18.910156 -22.15625 Z M 18.910156 -22.15625 "/></g></g></g><g fill="#4ba0a4" fill-opacity="1"><g transform="translate(306.137609, 197.973609)"><g><path d="M 56.414062 -21.332031 C 54.695312 -21.332031 52.847656 -20.375 52.210938 -18.335938 C 49.410156 -10.695312 45.910156 -7.578125 42.914062 -7.578125 C 41.640625 -7.578125 41.003906 -8.339844 41.003906 -9.296875 C 41.003906 -9.613281 41.003906 -9.933594 41.132812 -10.1875 L 46.546875 -25.023438 C 46.925781 -26.234375 47.183594 -27.507812 47.183594 -28.589844 C 47.183594 -34 42.40625 -37.375 36.613281 -37.375 C 34.320312 -37.375 31.007812 -36.804688 28.078125 -34.445312 C 26.742188 -35.976562 24.640625 -37.375 20.949219 -37.375 C 18.335938 -37.375 16.808594 -36.613281 15.664062 -35.910156 C 14.964844 -36.867188 13.5625 -37.375 12.160156 -37.375 C 10.1875 -37.375 8.148438 -36.421875 7.386719 -34.574219 L -2.800781 -5.222656 C -2.992188 -4.648438 -3.054688 -4.140625 -3.054688 -3.691406 C -3.054688 -1.335938 -1.019531 0 1.210938 0 C 3.375 0 5.539062 -1.273438 6.429688 -3.820312 L 14.007812 -25.597656 C 15.34375 -28.335938 17.382812 -29.863281 19.292969 -29.863281 C 20.566406 -29.863281 21.457031 -29.164062 21.457031 -28.015625 C 21.457031 -27.699219 21.394531 -27.253906 21.203125 -26.804688 L 13.753906 -6.113281 C 13.433594 -5.285156 13.242188 -4.457031 13.242188 -3.757812 C 13.242188 -1.335938 15.152344 0 17.320312 0 C 19.421875 0 21.710938 -1.273438 22.667969 -4.011719 L 29.988281 -24.707031 C 31.136719 -27.890625 33.554688 -29.863281 35.65625 -29.863281 C 36.804688 -29.863281 37.695312 -29.097656 37.695312 -27.890625 C 37.695312 -27.507812 37.628906 -27.0625 37.441406 -26.488281 L 32.601562 -13.308594 C 32.089844 -11.84375 31.835938 -10.378906 31.835938 -9.042969 C 31.835938 -3.246094 36.613281 0 42.214844 0 C 48.519531 0 55.523438 -4.074219 59.917969 -16.808594 C 60.042969 -17.253906 60.171875 -17.699219 60.171875 -18.148438 C 60.171875 -20.183594 58.324219 -21.332031 56.414062 -21.332031 Z M 56.414062 -21.332031 "/></g></g></g></svg>